<svg xmlns="http://www.w3.org/2000/svg" viewBox="0 0 1024 1024" role="img" aria-label="AI日省待办">
<defs>
  <linearGradient id="bg" x1="122" y1="96" x2="900" y2="930" gradientUnits="userSpaceOnUse">
    <stop stop-color="#ffffff"/>
    <stop offset="1" stop-color="#f8fbff"/>
  </linearGradient>
  <filter id="softShadow" x="-20%" y="-20%" width="140%" height="140%">
    <feDropShadow dx="0" dy="22" stdDeviation="24" flood-color="#0f172a" flood-opacity="0.12"/>
  </filter>
</defs>
<rect x="48" y="48" width="928" height="928" rx="176" fill="url(#bg)"/>
<g filter="url(#softShadow)">
  <path d="M434 204v-38c0-50 34-86 78-86s78 36 78 86v38" fill="none" stroke="#2563eb" stroke-width="54" stroke-linecap="round"/>
  <path d="M512 190c-126 0-216 92-216 224v118c0 52-30 88-78 109-28 12-43 42-31 70 10 23 32 37 59 37h532c27 0 49-14 59-37 12-28-3-58-31-70-48-21-78-57-78-109V414c0-132-90-224-216-224Z" fill="#ffffff" stroke="#2563eb" stroke-width="54" stroke-linejoin="round"/>
  <path d="M438 746c17 72 53 112 74 112s57-40 74-112" fill="none" stroke="#2563eb" stroke-width="54" stroke-linecap="round"/>
</g>
<g stroke-linecap="round" stroke-linejoin="round">
  <path d="M516 326l35 88 88 35-88 35-35 88-35-88-88-35 88-35 35-88Z" fill="#f6a800"/>
  <path d="M430 545l38 18 18 38 18-38 38-18-38-18-18-38-18 38-38 18Z" fill="#ffc43d" opacity="0.96"/>
  <path d="M610 558l25 11 11 25 11-25 25-11-25-11-11-25-11 25-25 11Z" fill="#f6a800" opacity="0.92"/>
  <path d="M363 443l26 11 11 26 11-26 26-11-26-11-11-26-11 26-26 11Z" fill="#f6a800" opacity="0.90"/>
  <path d="M654 394l16 7 7 16 7-16 16-7-16-7-7-16-7 16-16 7Z" fill="#ffd166" opacity="0.92"/>
  <path d="M350 585l15 6 6 15 6-15 15-6-15-6-6-15-6 15-15 6Z" fill="#ffd166" opacity="0.90"/>
  <path d="M455 374c21-30 43-48 71-58" fill="none" stroke="#ffd166" stroke-width="22" opacity="0.72"/>
  <path d="M588 471c31 12 55 30 73 55" fill="none" stroke="#ffd166" stroke-width="20" opacity="0.66"/>
</g>
</svg>
